<?xml version="1.0" standalone="no"?>
<!DOCTYPE svg PUBLIC "-//W3C//DTD SVG 20010904//EN"
 "http://www.w3.org/TR/2001/REC-SVG-20010904/DTD/svg10.dtd">
<svg version="1.0" xmlns="http://www.w3.org/2000/svg"
 width="1334.498713pt" height="1514.955975pt" viewBox="0 0 1334.498713 1514.955975"
 preserveAspectRatio="xMidYMid meet">

<g transform="translate(-333.472015,1781.046382) scale(0.100000,-0.100000)"
fill="#000000" stroke="none">
<path d="M4785 17790 c-493 -98 -892 -492 -1050 -1037 -133 -458 -56 -1039
204 -1528 81 -152 101 -186 174 -295 134 -200 230 -316 577 -700 219 -241 242
-279 265 -428 25 -173 -2 -250 -176 -487 -421 -576 -667 -982 -919 -1520 -101
-214 -255 -629 -314 -845 -8 -30 -27 -98 -41 -150 -75 -276 -121 -502 -157
-785 -18 -138 -18 -726 0 -860 25 -180 56 -341 102 -525 17 -69 35 -138 39
-155 10 -45 32 -37 86 30 27 33 76 94 110 135 33 41 92 116 130 165 123 162
235 263 235 212 0 -7 -23 -102 -50 -212 -88 -350 -113 -525 -114 -800 -1 -337
51 -584 191 -920 86 -203 211 -415 245 -415 11 0 43 16 73 35 194 124 438 189
845 226 63 5 189 17 280 25 104 10 326 18 603 21 351 4 437 8 437 18 0 18 -20
33 -428 321 -109 77 -359 236 -625 397 -272 165 -548 338 -622 390 -154 108
-168 133 -212 362 -14 73 -17 146 -17 385 0 282 7 393 44 680 5 41 17 140 26
220 8 80 24 185 35 233 10 49 19 90 19 93 0 2 -9 4 -20 4 -13 0 -94 -72 -220
-196 -133 -130 -206 -194 -218 -192 -32 6 -19 146 44 488 79 424 223 873 466
1455 151 362 232 535 460 992 34 68 58 126 55 130 -4 4 -51 6 -104 4 -54 -1
-162 1 -241 5 -113 5 -145 10 -149 22 -10 24 48 127 156 282 56 80 158 225
226 323 209 300 539 721 779 997 69 80 129 156 132 169 11 39 -6 66 -106 168
-53 54 -145 152 -205 217 -130 142 -250 269 -515 546 -331 346 -318 331 -283
345 42 15 588 -15 798 -44 64 -9 86 -2 66 23 -18 22 -180 120 -364 220 -292
160 -395 229 -760 509 -235 181 -317 257 -317 293 0 72 114 192 250 266 70 38
127 56 230 74 234 40 387 -13 770 -269 166 -112 260 -180 484 -352 583 -447
605 -460 826 -472 178 -9 263 12 645 162 368 145 644 239 885 302 30 7 96 25
145 38 206 54 550 116 748 135 142 14 150 -1 44 -76 -40 -28 -200 -127 -357
-221 -440 -263 -656 -419 -857 -619 -133 -132 -135 -154 -14 -154 58 0 198 40
346 100 61 24 375 145 520 200 28 11 75 29 105 40 77 30 402 144 545 192 114
38 125 40 210 35 187 -11 525 -123 1391 -460 237 -92 300 -109 384 -105 97 5
94 22 -22 134 -198 190 -455 380 -758 559 -118 70 -259 154 -313 186 -53 32
-100 59 -102 59 -3 0 -36 23 -75 50 -39 28 -75 50 -80 50 -6 0 -10 7 -10 15 0
37 360 4 650 -59 36 -8 99 -22 140 -30 147 -32 409 -108 655 -190 252 -84 296
-100 570 -206 310 -120 465 -152 633 -131 159 20 280 87 562 311 258 206 500
380 788 568 135 88 144 93 262 152 103 51 160 65 265 65 177 -1 328 -56 469
-172 113 -92 144 -166 98 -231 -30 -41 -323 -278 -522 -422 -173 -126 -293
-203 -470 -302 -295 -166 -420 -243 -420 -259 0 -8 20 -9 63 -5 257 28 786 51
801 36 13 -13 -10 -39 -152 -184 -70 -72 -173 -180 -227 -241 -121 -134 -286
-314 -381 -415 -143 -152 -232 -255 -298 -342 -44 -59 -54 -41 199 -340 72
-84 160 -189 196 -233 35 -44 94 -116 130 -160 93 -114 208 -274 362 -502 419
-621 413 -611 389 -635 -6 -6 -106 -12 -258 -14 -136 -2 -252 -8 -256 -12 -5
-5 12 -46 37 -93 313 -581 661 -1419 820 -1974 9 -33 23 -80 30 -105 63 -213
177 -835 161 -876 -12 -31 -49 -13 -110 53 -139 154 -328 335 -339 324 -7 -7
-4 -38 12 -103 73 -309 131 -920 117 -1228 -10 -219 -51 -429 -102 -517 -16
-27 -47 -56 -91 -86 -176 -114 -252 -162 -440 -275 -111 -67 -270 -165 -352
-219 -83 -54 -223 -145 -312 -203 -135 -88 -380 -258 -578 -401 -74 -54 -65
-56 384 -68 435 -12 880 -41 1080 -71 288 -43 457 -94 647 -192 43 -22 84 -38
92 -35 49 19 192 294 281 542 95 262 135 492 135 778 0 273 -24 430 -121 804
-42 166 -48 220 -24 230 37 14 178 -138 387 -415 106 -141 133 -171 144 -161
15 12 42 99 69 219 9 41 20 93 25 115 45 193 80 543 80 795 -1 682 -180 1456
-503 2170 -207 458 -430 829 -813 1357 -309 425 -318 443 -312 630 3 103 7
126 31 177 34 73 134 198 302 376 243 257 404 456 532 660 211 336 352 708
395 1040 16 132 16 405 -1 530 -68 507 -354 927 -778 1139 -314 158 -705 185
-1042 72 -315 -106 -592 -289 -1394 -923 -106 -85 -189 -127 -264 -134 -70 -7
-163 17 -398 100 -253 90 -409 141 -555 181 -36 9 -85 23 -110 31 -51 15 -298
75 -410 98 -41 9 -95 21 -120 26 -42 9 -96 18 -235 41 -102 16 -395 57 -510
71 -166 20 -855 17 -1045 -5 -251 -29 -387 -49 -580 -83 -238 -42 -707 -162
-970 -248 -101 -33 -140 -47 -420 -150 -152 -56 -267 -86 -306 -78 -86 16
-256 130 -567 380 -545 439 -873 638 -1177 719 -180 47 -470 58 -645 23z"/>
<path d="M9735 15576 c-231 -49 -541 -142 -865 -260 -394 -143 -515 -210 -670
-372 -145 -152 -247 -301 -339 -494 -61 -130 -97 -238 -83 -252 6 -6 42 14
107 62 53 40 151 106 217 147 263 164 461 245 1133 466 143 47 332 110 421
141 200 68 327 99 379 93 43 -5 627 -193 1035 -334 519 -179 884 -355 1077
-520 43 -37 54 -42 59 -29 17 44 -134 370 -238 513 -34 49 -110 136 -168 194
-208 212 -423 318 -1010 499 -74 22 -146 45 -160 50 -44 16 -332 88 -419 104
-127 24 -339 20 -476 -8z"/>
<path d="M6859 14475 c-131 -69 -355 -316 -543 -600 -261 -395 -465 -829 -646
-1375 -44 -133 -140 -446 -164 -535 -94 -348 -127 -479 -204 -820 -22 -97 -66
-316 -82 -405 -5 -30 -16 -91 -24 -135 -85 -479 -88 -761 -10 -1040 9 -33 20
-73 24 -90 18 -71 62 -190 140 -380 63 -153 194 -390 287 -522 171 -242 313
-369 808 -723 260 -186 394 -290 479 -371 l69 -66 -12 -114 c-6 -63 -16 -150
-21 -194 -9 -72 -8 -82 9 -99 11 -10 97 -45 193 -77 192 -64 266 -91 478 -174
80 -31 228 -88 330 -127 102 -38 194 -74 205 -79 69 -31 254 -84 335 -95 137
-20 170 -19 170 5 0 24 -258 198 -505 342 -88 51 -243 141 -345 200 -339 197
-457 285 -481 356 -33 101 32 388 129 562 120 219 301 485 442 651 115 134
357 443 412 525 124 184 256 500 328 783 54 215 76 346 95 587 18 229 18 378
0 535 -24 213 -50 293 -240 745 -176 419 -209 528 -207 684 2 161 38 269 204
619 21 45 36 87 33 92 -26 42 -209 -83 -320 -218 -98 -118 -145 -232 -164
-399 -17 -142 11 -332 79 -544 35 -110 42 -172 20 -176 -8 -2 -69 26 -135 62
-382 207 -664 262 -1162 223 -183 -13 -212 -8 -275 56 -54 53 -98 135 -131
241 -44 139 -52 207 -51 420 0 179 3 214 28 330 34 161 46 206 103 375 84 250
171 456 305 727 60 122 108 230 106 240 -5 26 -37 26 -89 -2z m-748 -2331 c72
-121 173 -235 263 -298 68 -48 62 -45 206 -96 119 -41 117 -39 119 -155 4
-271 153 -593 370 -797 134 -127 326 -236 492 -280 77 -21 106 -23 359 -23
l275 0 54 -30 c59 -33 125 -102 147 -154 20 -47 17 -149 -5 -234 -78 -290
-189 -556 -321 -768 -29 -46 -118 -171 -199 -278 -80 -107 -217 -289 -304
-404 -194 -258 -224 -303 -328 -492 -83 -152 -105 -185 -121 -185 -4 0 -45 33
-91 73 -45 40 -109 94 -142 121 -115 93 -431 385 -570 527 -192 197 -327 374
-408 534 -88 176 -188 452 -231 639 -43 186 -57 400 -36 549 31 213 46 304 74
447 8 41 27 138 41 215 15 77 36 185 47 240 11 55 23 111 25 125 7 39 32 152
68 305 46 197 63 274 71 320 8 50 45 207 51 218 9 15 30 -12 94 -119z m1204
-314 c134 -9 220 -24 239 -41 4 -4 -12 -40 -37 -81 -64 -103 -81 -162 -74
-254 10 -135 86 -251 202 -305 51 -25 73 -29 142 -29 97 0 146 18 216 80 51
46 84 92 107 150 30 79 50 116 70 135 21 19 21 19 49 -11 36 -37 95 -146 115
-214 30 -101 -16 -223 -123 -331 -104 -104 -231 -156 -406 -166 -112 -6 -199
12 -311 67 -105 53 -182 116 -267 220 -80 100 -127 179 -164 281 -26 70 -27
84 -28 254 0 99 4 193 8 208 13 49 39 53 262 37z"/>
<path d="M6067 10583 c-17 -29 -30 -183 -30 -363 0 -179 3 -216 22 -290 59
-225 159 -413 341 -639 135 -168 330 -331 415 -347 46 -8 90 18 234 142 158
136 245 209 335 278 42 33 75 64 73 70 -6 18 -53 19 -203 6 -123 -11 -156 -11
-251 3 -142 20 -214 56 -352 176 -134 116 -210 205 -309 363 -79 125 -113 200
-183 408 -56 163 -80 214 -92 193z"/>
<path d="M13036 14471 c-9 -14 11 -67 57 -153 209 -386 372 -747 451 -996 102
-318 102 -621 3 -911 -39 -116 -108 -241 -154 -282 -56 -49 -92 -53 -322 -34
-209 18 -353 16 -505 -5 -205 -30 -457 -120 -651 -234 -51 -30 -95 -45 -95
-33 0 2 18 55 39 118 69 202 92 320 92 490 0 124 -12 189 -57 298 -61 152
-197 301 -355 390 -57 32 -83 38 -93 22 -4 -5 21 -60 53 -123 75 -142 155
-328 175 -406 20 -76 20 -224 1 -327 -22 -115 -48 -197 -128 -400 -155 -399
-225 -583 -245 -645 -93 -292 -87 -865 13 -1210 116 -402 224 -671 347 -867
57 -91 273 -379 470 -626 392 -492 541 -783 555 -1088 l6 -116 -34 -33 c-19
-18 -52 -45 -74 -60 -60 -41 -525 -319 -645 -385 -58 -32 -179 -104 -270 -160
-91 -55 -194 -117 -230 -137 -83 -47 -136 -91 -126 -106 10 -16 108 -15 199 2
101 20 253 72 682 236 198 76 407 154 465 173 147 49 350 114 382 121 45 10
45 26 2 241 -30 152 -30 171 0 210 30 38 300 248 586 455 514 371 626 482 829
819 125 205 291 571 331 726 4 17 15 57 24 90 50 183 59 261 59 515 0 295 -6
346 -118 915 -14 72 -31 157 -39 190 -8 33 -22 94 -31 135 -9 41 -21 91 -26
110 -4 19 -14 62 -22 95 -13 56 -73 282 -103 385 -48 171 -131 433 -184 580
-23 63 -63 180 -90 260 -124 367 -234 608 -427 932 -205 345 -475 660 -688
804 -47 32 -98 44 -109 25z m952 -2278 c32 -106 118 -447 141 -560 11 -55 28
-132 37 -169 47 -205 139 -664 163 -819 12 -71 27 -164 33 -205 19 -114 16
-388 -5 -484 -42 -191 -72 -291 -143 -479 -83 -219 -182 -395 -337 -602 -79
-105 -343 -367 -532 -529 -82 -71 -196 -172 -252 -224 -168 -155 -195 -168
-230 -104 -11 20 -35 64 -53 97 -79 146 -219 344 -473 670 -117 151 -286 380
-348 471 -177 261 -347 669 -389 931 -11 69 -11 89 0 124 19 55 89 131 147
160 47 22 57 23 343 23 335 1 358 5 516 81 134 65 238 138 344 245 217 216
330 480 330 771 0 93 1 99 26 118 14 11 55 30 92 42 37 12 112 43 167 69 139
67 213 142 300 306 58 107 76 134 90 134 7 0 22 -28 33 -67z m-1056 -375 c21
-38 17 -366 -5 -453 -59 -224 -291 -493 -487 -564 -106 -38 -301 -55 -376 -32
-123 37 -156 50 -206 79 -64 37 -125 102 -180 194 -34 55 -38 69 -38 127 0
132 106 341 166 329 20 -3 24 -11 83 -141 49 -108 128 -192 206 -220 77 -27
193 -23 259 8 95 45 185 165 205 272 18 97 -28 263 -88 317 -26 23 -27 42 -3
54 49 26 213 48 364 51 81 1 88 -1 100 -21z"/>
<path d="M13932 10553 c-5 -10 -23 -61 -41 -113 -47 -138 -219 -478 -298 -590
-151 -210 -370 -377 -539 -410 -68 -13 -279 -9 -409 9 -65 9 -82 8 -93 -3 -12
-11 -9 -17 19 -36 43 -31 165 -135 269 -230 152 -138 232 -199 294 -225 34
-14 39 -14 98 11 81 33 141 79 259 195 171 170 258 288 353 482 87 179 128
326 141 508 7 89 -8 369 -21 403 -8 21 -21 20 -32 -1z"/>
<path d="M8643 14094 c-123 -17 -388 -92 -481 -136 -102 -49 -231 -136 -293
-199 -135 -136 -216 -433 -208 -761 3 -112 7 -140 21 -154 15 -16 19 -12 57
62 22 44 50 98 62 121 42 81 183 258 293 372 61 62 212 195 335 295 241 195
283 229 379 313 114 101 78 120 -165 87z"/>
<path d="M11158 14098 c-16 -5 -28 -15 -28 -22 0 -18 217 -202 590 -501 290
-232 475 -464 571 -713 14 -35 32 -22 47 34 21 77 9 395 -18 499 -87 336 -339
554 -763 661 -201 51 -336 65 -399 42z"/>
<path d="M9905 13977 c-114 -62 -242 -157 -481 -358 -312 -263 -440 -437 -475
-641 -19 -116 -3 -134 66 -73 94 83 220 171 505 353 469 298 432 282 528 237
82 -38 552 -318 707 -421 77 -51 172 -120 210 -154 80 -69 108 -74 113 -23 2
18 -4 61 -13 95 -55 219 -194 378 -639 736 -208 166 -389 282 -441 282 -11 0
-47 -15 -80 -33z"/>
<path d="M11326 7826 c-33 -50 -71 -94 -92 -107 l-36 -22 -106 28 c-191 49
-280 60 -375 46 -93 -15 -154 -30 -282 -73 -165 -54 -335 -88 -447 -88 -90 0
-172 19 -368 84 -91 30 -194 62 -230 71 -84 22 -250 22 -350 -1 -41 -9 -102
-23 -135 -30 -33 -8 -72 -14 -87 -14 -36 0 -82 41 -121 109 -47 79 -73 81
-121 9 -35 -51 -36 -55 -36 -149 0 -164 46 -272 172 -405 87 -91 192 -169 353
-259 170 -96 280 -165 326 -203 37 -32 62 -77 129 -227 50 -112 110 -179 236
-261 l82 -54 7 -127 c4 -71 5 -189 1 -263 -6 -125 -9 -136 -34 -169 -37 -50
-77 -84 -211 -180 -259 -187 -427 -289 -616 -378 -179 -83 -302 -119 -503
-147 -149 -21 -210 -20 -393 5 -227 32 -203 39 -211 -61 -11 -156 -8 -461 6
-555 45 -298 231 -579 601 -911 50 -44 176 -152 280 -239 105 -87 192 -161
195 -164 3 -3 49 -48 102 -100 119 -116 128 -115 128 19 0 109 20 347 31 378
14 36 33 26 92 -45 50 -62 103 -136 316 -438 94 -134 159 -195 234 -223 68
-26 127 -28 209 -6 113 29 168 78 291 259 146 215 155 229 192 295 52 91 106
160 127 160 9 0 22 -8 27 -18 14 -25 48 -221 63 -362 10 -90 16 -115 29 -118
9 -2 54 34 105 85 128 126 277 260 452 407 483 404 679 689 732 1061 11 77 12
382 2 515 l-7 85 -30 -1 c-16 -1 -112 -8 -211 -15 -183 -12 -363 -5 -503 20
-307 56 -848 360 -1105 620 l-59 60 -9 118 c-5 65 -6 186 -3 268 l7 151 100
74 c134 99 181 155 269 316 41 74 87 151 102 170 16 18 70 58 120 88 51 30
148 86 215 126 261 153 410 308 479 497 44 123 29 285 -34 347 -14 14 -29 26
-33 26 -5 0 -33 -38 -64 -84z m-1941 -268 c73 -15 150 -41 239 -82 142 -66
210 -80 386 -78 182 1 298 22 418 76 175 78 324 106 459 86 161 -23 243 -70
228 -130 -14 -55 -49 -68 -237 -85 -142 -13 -301 -100 -416 -227 -86 -94 -122
-189 -142 -368 -15 -134 -43 -204 -95 -245 -46 -35 -97 -55 -138 -55 -38 0
-57 15 -57 46 0 12 -7 27 -15 34 -12 10 -16 9 -21 -6 -31 -86 -31 -87 -74 -81
-53 7 -116 40 -163 85 -44 43 -62 98 -71 217 -8 108 -32 219 -61 283 -44 97
-207 233 -338 281 -86 31 -139 41 -264 50 -120 8 -145 19 -164 69 -40 105 272
183 526 130z m722 -2313 c129 -21 280 -76 508 -185 339 -162 341 -163 482
-209 113 -38 200 -59 346 -85 87 -16 93 -22 78 -83 -24 -95 -87 -209 -155
-275 -208 -207 -485 -332 -848 -384 -100 -14 -180 -15 -540 -11 -233 3 -468
10 -523 16 -329 38 -618 171 -825 380 -95 96 -138 163 -175 271 -15 41 -14 46
1 57 9 7 42 17 73 23 144 29 356 86 456 122 61 22 211 91 335 153 310 155 390
187 528 210 104 18 151 18 259 0z"/>
<path d="M6015 6670 c-304 -7 -465 -17 -755 -46 -301 -30 -690 -121 -731 -170
-9 -11 -8 -18 2 -33 35 -49 178 -220 213 -255 34 -34 42 -38 74 -32 19 3 74
25 121 50 87 45 226 96 260 96 31 0 68 -37 126 -126 31 -47 67 -90 80 -96 28
-13 42 -8 200 68 235 112 352 159 545 219 41 13 125 39 185 58 61 19 151 44
200 57 50 12 96 28 104 34 10 8 12 29 9 83 -3 41 -8 76 -11 80 -13 13 -104 22
-207 21 -58 -1 -244 -5 -415 -8z"/>
<path d="M13416 6670 c-21 -4 -42 -13 -48 -21 -11 -17 -1 -118 14 -136 6 -7
63 -29 127 -49 184 -56 430 -141 496 -169 17 -7 59 -26 95 -41 148 -62 231
-100 342 -155 64 -33 123 -59 131 -59 25 0 75 48 104 99 52 92 84 139 98 145
24 9 114 -24 249 -90 71 -35 141 -64 156 -64 37 0 65 24 163 138 100 116 121
147 114 167 -13 32 -211 105 -377 138 -193 39 -285 50 -595 72 -274 20 -1006
37 -1069 25z"/>
<path d="M6957 6633 c-33 -33 53 -485 105 -550 7 -9 48 -13 137 -13 231 -1
529 -20 941 -61 260 -25 701 -32 738 -11 46 26 18 82 -55 110 -37 14 -196 55
-358 92 -71 17 -146 35 -165 40 -19 5 -73 20 -120 34 -47 13 -114 31 -150 41
-36 10 -110 32 -165 50 -224 73 -545 175 -630 200 -49 14 -122 37 -162 51 -73
24 -104 29 -116 17z"/>
<path d="M12920 6584 c-153 -39 -285 -74 -446 -120 -83 -23 -195 -55 -250 -69
-244 -65 -404 -108 -599 -160 -115 -30 -253 -67 -305 -81 -52 -14 -105 -28
-118 -31 -13 -3 -39 -20 -58 -38 -42 -40 -47 -81 -9 -91 64 -16 783 13 1025
41 30 4 211 10 402 13 295 6 350 10 363 23 23 23 82 185 106 292 11 50 21 126
22 167 2 90 5 89 -133 54z"/>
<path d="M6655 6157 c-22 -6 -167 -48 -322 -93 -295 -87 -406 -126 -445 -155
-20 -16 -21 -20 -8 -33 8 -8 51 -25 95 -39 293 -92 344 -107 370 -107 18 0 64
20 115 51 47 28 119 70 160 92 95 50 170 97 170 106 0 12 -62 166 -72 179 -6
6 -13 11 -17 11 -3 -1 -24 -6 -46 -12z"/>
<path d="M13280 6155 c-22 -26 -61 -177 -50 -190 6 -7 54 -34 108 -60 53 -26
147 -76 208 -111 63 -36 124 -64 139 -64 27 0 321 83 413 116 23 9 42 21 42
28 0 14 -83 66 -155 96 -139 59 -461 156 -595 180 -36 6 -72 13 -81 16 -9 2
-22 -2 -29 -11z"/>
<path d="M7374 5741 c-147 -8 -164 -12 -164 -38 0 -27 112 -185 187 -264 77
-81 143 -123 208 -133 150 -25 957 166 1215 286 86 40 118 98 66 118 -48 18
-1281 43 -1512 31z"/>
<path d="M11525 5730 c-416 -6 -445 -9 -445 -49 0 -36 56 -67 242 -137 324
-120 757 -228 969 -241 100 -6 109 -4 163 20 67 31 159 115 232 213 67 91 94
138 94 168 0 22 -4 23 -92 30 -99 7 -538 5 -1163 -4z"/>
</g>
</svg>
